# xmcd
#
# Track frame offsets:
#	150
#	14532
#	28850
#	42250
#	56322
#	71757
#	86812
#	100880
#	114085
#	131172
#	146870
#	162067
#	178132
#	190692
#	201597
#
# Disc length: 2885 seconds
#
# Revision: 1
# Processed by: cddbd v1.5.1PL2 Copyright (c) Steve Scherf et al.
# Submitted via: audiograbber 1.83.01
#
DISCID=d90b430f
DTITLE=Music Maestro - MM6152
DYEAR=1900
DGENRE=Karaoke
TTITLE0=Twain, Shania - No One Needs To Know
TTITLE1=Hayes, Wade - On A Good Night
TTITLE2=Kershaw, Sammy - Vidalia
TTITLE3=Barnett, Mandy - Maybe
TTITLE4=Strait, George - Carried Away
TTITLE5=McCoy, Neal - Then You Can Tell Me Goodbye
TTITLE6=Ball, David - Circle Of Friends
TTITLE7=Smokin' Armadillos - Thump Factor
TTITLE8=Bonamy, James - I Don't Think I Will
TTITLE9=Adkins, Trace - There's A Girl In Texas
TTITLE10=Alabama - Say I
TTITLE11=Parnell, Leroy - Givin' Water To A Drowning Man
TTITLE12=Mellons, Ken - Stranger In Your Eyes
TTITLE13=White, Lari - Wild At Heart
TTITLE14=Emilio - I Think We're On To Something
EXTD=As Listed In KJ Pro
EXTT0=
EXTT1=
EXTT2=
EXTT3=
EXTT4=
EXTT5=
EXTT6=
EXTT7=
EXTT8=
EXTT9=
EXTT10=
EXTT11=
EXTT12=
EXTT13=
EXTT14=
PLAYORDER=
